<?xml version="1.0" encoding="UTF-8"?>
<svg xmlns="http://www.w3.org/2000/svg" xmlns:xlink="http://www.w3.org/1999/xlink" width="24px" height="24px" viewBox="0 0 24 24" version="1.1">
<g id="surface1">
<path style=" stroke:none;fill-rule:nonzero;fill:rgb(88.627451%,89.019608%,89.803922%);fill-opacity:1;" d="M 23.1875 9.859375 L 21.003906 9.859375 C 19.894531 9.859375 19.335938 8.492188 20.105469 7.722656 L 21.648438 6.183594 C 21.945312 5.882812 21.945312 5.410156 21.648438 5.113281 L 19.679688 3.144531 C 19.378906 2.84375 18.910156 2.84375 18.609375 3.144531 L 17.113281 4.683594 C 16.300781 5.496094 14.972656 4.898438 14.972656 3.785156 L 14.972656 1.648438 C 14.972656 1.21875 14.632812 0.878906 14.203125 0.878906 L 11.464844 0.878906 C 11.039062 0.878906 10.695312 1.21875 10.695312 1.648438 L 10.695312 3.828125 C 10.695312 4.941406 9.328125 5.496094 8.554688 4.726562 L 7.015625 3.1875 C 6.714844 2.886719 6.246094 2.886719 5.945312 3.1875 L 3.980469 5.113281 C 3.679688 5.410156 3.679688 5.882812 3.980469 6.183594 L 5.519531 7.722656 C 6.332031 8.535156 5.734375 9.859375 4.621094 9.859375 L 2.480469 9.859375 C 2.054688 9.859375 1.710938 10.203125 1.710938 10.632812 L 1.710938 13.367188 C 1.710938 13.796875 2.054688 14.140625 2.480469 14.140625 L 4.664062 14.140625 C 5.777344 14.140625 6.332031 15.507812 5.5625 16.277344 L 4.019531 17.816406 C 3.722656 18.117188 3.722656 18.589844 4.019531 18.886719 L 5.988281 20.855469 C 6.289062 21.15625 6.757812 21.15625 7.058594 20.855469 L 8.597656 19.316406 C 9.410156 18.503906 10.738281 19.101562 10.738281 20.214844 L 10.738281 22.394531 C 10.738281 22.824219 11.082031 23.164062 11.507812 23.164062 L 14.246094 23.164062 C 14.671875 23.164062 15.015625 22.824219 15.015625 22.394531 L 15.015625 20.214844 C 15.015625 19.101562 16.386719 18.546875 17.15625 19.316406 L 18.695312 20.855469 C 18.996094 21.15625 19.464844 21.15625 19.765625 20.855469 L 21.734375 18.886719 C 22.03125 18.589844 22.03125 18.117188 21.734375 17.816406 L 20.148438 16.277344 C 19.335938 15.464844 19.9375 14.140625 21.046875 14.140625 L 23.230469 14.140625 C 23.65625 14.140625 24 13.796875 24 13.367188 L 24 10.632812 C 23.957031 10.203125 23.613281 9.859375 23.1875 9.859375 "/>
<path style=" stroke:none;fill-rule:nonzero;fill:rgb(80%,80%,80%);fill-opacity:1;" d="M 21.902344 9.859375 L 19.722656 9.859375 C 18.609375 9.859375 18.054688 8.492188 18.824219 7.722656 L 20.363281 6.183594 C 20.664062 5.882812 20.664062 5.410156 20.363281 5.113281 L 18.394531 3.144531 C 18.097656 2.84375 17.625 2.84375 17.328125 3.144531 L 15.828125 4.683594 C 15.015625 5.496094 13.691406 4.898438 13.691406 3.785156 L 13.691406 1.648438 C 13.691406 1.21875 13.347656 0.878906 12.917969 0.878906 L 10.183594 0.878906 C 9.753906 0.878906 9.410156 1.21875 9.410156 1.648438 L 9.410156 3.828125 C 9.410156 4.941406 8.042969 5.496094 7.273438 4.726562 L 5.734375 3.1875 C 5.433594 2.886719 4.960938 2.886719 4.664062 3.1875 L 2.695312 5.113281 C 2.394531 5.410156 2.394531 5.882812 2.695312 6.183594 L 4.234375 7.722656 C 5.046875 8.535156 4.449219 9.859375 3.335938 9.859375 L 1.199219 9.859375 C 0.769531 9.859375 0.429688 10.203125 0.429688 10.632812 L 0.429688 13.367188 C 0.429688 13.796875 0.769531 14.140625 1.199219 14.140625 L 3.378906 14.140625 C 4.492188 14.140625 5.046875 15.507812 4.277344 16.277344 L 2.738281 17.816406 C 2.4375 18.117188 2.4375 18.589844 2.738281 18.886719 L 4.707031 20.855469 C 5.003906 21.15625 5.476562 21.15625 5.773438 20.855469 L 7.316406 19.316406 C 8.128906 18.503906 9.453125 19.101562 9.453125 20.214844 L 9.453125 22.394531 C 9.453125 22.824219 9.796875 23.164062 10.222656 23.164062 L 12.960938 23.164062 C 13.390625 23.164062 13.734375 22.824219 13.734375 22.394531 L 13.734375 20.214844 C 13.734375 19.101562 15.101562 18.546875 15.871094 19.316406 L 17.410156 20.855469 C 17.710938 21.15625 18.183594 21.15625 18.480469 20.855469 L 20.449219 18.886719 C 20.75 18.589844 20.75 18.117188 20.449219 17.816406 L 18.867188 16.277344 C 18.054688 15.464844 18.652344 14.140625 19.765625 14.140625 L 21.945312 14.140625 C 22.375 14.140625 22.714844 13.796875 22.714844 13.367188 L 22.714844 10.632812 C 22.671875 10.203125 22.332031 9.859375 21.902344 9.859375 "/>
<path style=" stroke:none;fill-rule:nonzero;fill:rgb(88.627451%,89.019608%,89.803922%);fill-opacity:1;" d="M 20.621094 9.859375 L 18.4375 9.859375 C 17.328125 9.859375 16.769531 8.492188 17.539062 7.722656 L 19.082031 6.183594 C 19.378906 5.882812 19.378906 5.410156 19.082031 5.113281 L 17.328125 3.359375 C 17.285156 3.359375 17.242188 3.402344 17.242188 3.402344 C 16.429688 3.65625 15.699219 4.257812 15.101562 4.855469 C 14.886719 5.113281 14.546875 4.984375 14.417969 4.769531 C 13.773438 5.410156 13.691406 4.855469 13.691406 3.785156 L 13.691406 1.648438 C 13.691406 1.21875 13.347656 0.878906 12.917969 0.878906 L 10.183594 0.878906 C 9.753906 0.878906 9.410156 1.21875 9.410156 1.648438 L 9.410156 3.828125 C 9.410156 4.941406 8.042969 5.496094 7.273438 4.726562 L 5.734375 3.1875 C 5.433594 2.886719 4.960938 2.886719 4.664062 3.1875 L 2.695312 5.113281 C 2.394531 5.410156 2.394531 5.882812 2.695312 6.183594 L 4.234375 7.722656 C 5.046875 8.535156 4.449219 9.859375 3.335938 9.859375 L 1.199219 9.859375 C 0.769531 9.859375 0.429688 10.203125 0.429688 10.632812 L 0.429688 13.367188 C 0.429688 13.796875 0.769531 14.140625 1.199219 14.140625 L 3.378906 14.140625 C 4.492188 14.140625 5.046875 15.507812 4.277344 16.277344 L 2.738281 17.816406 C 2.4375 18.117188 2.4375 18.589844 2.738281 18.886719 L 4.707031 20.855469 C 5.003906 21.15625 5.476562 21.15625 5.773438 20.855469 L 7.316406 19.316406 C 8.128906 18.503906 9.453125 19.101562 9.453125 20.214844 L 9.453125 22.394531 C 9.453125 22.824219 9.796875 23.164062 10.222656 23.164062 L 12.960938 23.164062 C 13.390625 23.164062 13.734375 22.824219 13.734375 22.394531 L 13.734375 20.214844 C 13.734375 19.230469 13.773438 18.671875 14.332031 19.101562 C 14.460938 18.671875 15.101562 18.546875 15.230469 19.058594 C 15.402344 19.058594 15.570312 19.144531 15.65625 19.273438 C 15.828125 19.613281 16.128906 19.785156 16.429688 20 C 16.597656 20.128906 16.683594 20.34375 16.640625 20.554688 C 16.855469 20.640625 17.070312 20.726562 17.285156 20.8125 L 17.324219 20.8125 L 19.207031 18.929688 C 19.507812 18.632812 19.507812 18.160156 19.207031 17.859375 L 17.582031 16.277344 C 16.769531 15.464844 17.367188 14.140625 18.480469 14.140625 L 20.664062 14.140625 C 21.089844 14.140625 21.433594 13.796875 21.433594 13.367188 L 21.433594 10.632812 C 21.390625 10.203125 21.046875 9.859375 20.621094 9.859375 "/>
<path style=" stroke:none;fill-rule:nonzero;fill:rgb(87.843137%,87.843137%,87.843137%);fill-opacity:1;" d="M 14.972656 12 C 14.972656 13.882812 13.433594 15.421875 11.550781 15.421875 C 9.667969 15.421875 8.128906 13.882812 8.128906 12 C 8.128906 10.117188 9.667969 8.578125 11.550781 8.578125 C 13.433594 8.578125 14.972656 10.117188 14.972656 12 "/>
<path style=" stroke:none;fill-rule:nonzero;fill:rgb(94.117647%,94.117647%,94.117647%);fill-opacity:1;" d="M 13.691406 12 C 13.691406 13.882812 12.449219 15.421875 10.910156 15.421875 C 9.367188 15.421875 8.128906 13.882812 8.128906 12 C 8.128906 10.117188 9.367188 8.578125 10.910156 8.578125 C 12.449219 8.578125 13.691406 10.117188 13.691406 12 "/>
<path style=" stroke:none;fill-rule:nonzero;fill:rgb(100%,100%,100%);fill-opacity:1;" d="M 5.816406 20.597656 C 5.777344 20.597656 5.734375 20.640625 5.734375 20.640625 L 3.980469 18.886719 C 3.679688 18.589844 3.679688 18.117188 3.980469 17.816406 L 5.519531 16.277344 C 6.332031 15.464844 5.734375 14.140625 4.621094 14.140625 L 3.335938 14.140625 C 4.449219 14.140625 5.003906 15.507812 4.234375 16.277344 L 2.695312 17.816406 C 2.394531 18.117188 2.394531 18.589844 2.695312 18.886719 L 4.664062 20.855469 C 4.960938 21.15625 5.433594 21.15625 5.734375 20.855469 L 6.074219 20.511719 C 5.988281 20.554688 5.902344 20.554688 5.816406 20.597656 "/>
<path style=" stroke:none;fill-rule:nonzero;fill:rgb(100%,100%,100%);fill-opacity:1;" d="M 4.234375 7.722656 C 5.046875 8.535156 4.449219 9.859375 3.335938 9.859375 L 4.621094 9.859375 C 5.734375 9.859375 6.289062 8.492188 5.519531 7.722656 L 3.980469 6.183594 C 3.679688 5.882812 3.679688 5.410156 3.980469 5.113281 L 5.816406 3.273438 L 5.734375 3.1875 C 5.433594 2.886719 4.960938 2.886719 4.664062 3.1875 L 2.695312 5.113281 C 2.394531 5.410156 2.394531 5.882812 2.695312 6.183594 Z M 4.234375 7.722656 "/>
<path style=" stroke:none;fill-rule:nonzero;fill:rgb(100%,100%,100%);fill-opacity:1;" d="M 1.199219 14.140625 L 2.480469 14.140625 C 2.054688 14.140625 1.710938 13.796875 1.710938 13.367188 L 1.710938 10.632812 C 1.710938 10.203125 2.054688 9.859375 2.480469 9.859375 L 1.199219 9.859375 C 0.769531 9.859375 0.429688 10.203125 0.429688 10.632812 L 0.429688 13.367188 C 0.429688 13.796875 0.769531 14.140625 1.199219 14.140625 "/>
<path style=" stroke:none;fill-rule:nonzero;fill:rgb(71.372549%,71.372549%,71.372549%);fill-opacity:1;" d="M 12.917969 23.550781 L 10.183594 23.550781 C 9.539062 23.550781 8.984375 23.039062 8.984375 22.351562 L 8.984375 20.171875 C 8.984375 19.828125 8.8125 19.53125 8.46875 19.402344 C 8.171875 19.273438 7.828125 19.316406 7.570312 19.570312 L 6.03125 21.113281 C 5.816406 21.328125 5.519531 21.453125 5.175781 21.453125 C 4.878906 21.453125 4.578125 21.328125 4.320312 21.113281 L 2.351562 19.144531 C 1.882812 18.671875 1.882812 17.945312 2.351562 17.476562 L 3.894531 15.9375 C 4.148438 15.679688 4.191406 15.335938 4.0625 15.039062 C 3.9375 14.695312 3.636719 14.523438 3.292969 14.523438 L 1.199219 14.523438 C 0.511719 14.566406 0 14.054688 0 13.367188 L 0 10.632812 C 0 9.988281 0.511719 9.433594 1.199219 9.433594 L 3.378906 9.433594 C 3.722656 9.433594 4.019531 9.261719 4.148438 8.917969 C 4.277344 8.578125 4.234375 8.277344 3.980469 8.019531 L 2.4375 6.480469 C 1.96875 6.011719 1.96875 5.285156 2.4375 4.8125 L 4.40625 2.84375 C 4.878906 2.375 5.648438 2.375 6.074219 2.84375 L 7.613281 4.386719 C 7.871094 4.640625 8.214844 4.683594 8.511719 4.554688 C 8.8125 4.429688 9.027344 4.128906 9.027344 3.785156 L 9.027344 1.648438 C 8.984375 0.960938 9.496094 0.449219 10.183594 0.449219 L 12.917969 0.449219 C 13.605469 0.449219 14.117188 0.960938 14.117188 1.648438 L 14.117188 3.828125 C 14.117188 4.171875 14.289062 4.46875 14.632812 4.597656 C 14.929688 4.726562 15.273438 4.683594 15.53125 4.429688 L 17.070312 2.886719 C 17.285156 2.671875 17.582031 2.546875 17.925781 2.546875 C 18.226562 2.546875 18.523438 2.671875 18.78125 2.886719 L 20.75 4.855469 C 21.21875 5.328125 21.21875 6.054688 20.75 6.523438 L 19.207031 8.0625 C 18.953125 8.320312 18.910156 8.664062 19.039062 8.960938 C 19.164062 9.304688 19.464844 9.476562 19.808594 9.476562 L 21.988281 9.476562 C 22.632812 9.476562 23.1875 9.988281 23.1875 10.671875 L 23.1875 13.410156 C 23.1875 14.054688 22.675781 14.609375 21.988281 14.609375 L 19.808594 14.609375 C 19.464844 14.609375 19.164062 14.78125 19.039062 15.121094 C 18.910156 15.464844 18.953125 15.765625 19.207031 16.019531 L 20.75 17.5625 C 21.21875 18.03125 21.21875 18.757812 20.75 19.230469 L 18.78125 21.199219 C 18.566406 21.410156 18.265625 21.539062 17.925781 21.539062 C 17.625 21.539062 17.328125 21.410156 17.070312 21.199219 L 15.53125 19.65625 C 15.273438 19.402344 14.929688 19.359375 14.632812 19.488281 C 14.289062 19.613281 14.117188 19.914062 14.117188 20.257812 L 14.117188 22.4375 C 14.117188 23.039062 13.605469 23.550781 12.917969 23.550781 Z M 8.128906 18.503906 C 8.34375 18.503906 8.554688 18.546875 8.769531 18.632812 C 9.410156 18.886719 9.796875 19.488281 9.796875 20.171875 L 9.796875 22.351562 C 9.796875 22.523438 9.925781 22.695312 10.140625 22.695312 L 12.878906 22.695312 C 13.046875 22.695312 13.21875 22.523438 13.21875 22.351562 L 13.21875 20.171875 C 13.21875 19.488281 13.605469 18.886719 14.246094 18.632812 C 14.886719 18.375 15.570312 18.503906 16.085938 19.015625 L 17.625 20.554688 C 17.667969 20.597656 17.753906 20.640625 17.882812 20.640625 C 17.96875 20.640625 18.054688 20.597656 18.140625 20.554688 L 20.105469 18.589844 C 20.234375 18.460938 20.234375 18.246094 20.105469 18.117188 L 18.566406 16.578125 C 18.097656 16.105469 17.925781 15.378906 18.183594 14.738281 C 18.4375 14.097656 19.039062 13.710938 19.722656 13.710938 L 21.902344 13.710938 C 22.074219 13.710938 22.246094 13.539062 22.246094 13.367188 L 22.246094 10.632812 C 22.246094 10.460938 22.117188 10.289062 21.902344 10.289062 L 19.722656 10.289062 C 19.039062 10.289062 18.4375 9.902344 18.183594 9.261719 C 17.925781 8.621094 18.054688 7.9375 18.566406 7.421875 L 20.105469 5.882812 C 20.234375 5.753906 20.234375 5.539062 20.105469 5.410156 L 18.140625 3.445312 C 18.097656 3.402344 18.011719 3.359375 17.882812 3.359375 C 17.796875 3.359375 17.710938 3.402344 17.667969 3.445312 L 16.128906 4.984375 C 15.613281 5.453125 14.929688 5.625 14.289062 5.367188 C 13.648438 5.113281 13.261719 4.511719 13.261719 3.828125 L 13.261719 1.648438 C 13.261719 1.476562 13.132812 1.304688 12.917969 1.304688 L 10.183594 1.304688 C 10.011719 1.304688 9.839844 1.476562 9.839844 1.648438 L 9.839844 3.828125 C 9.839844 4.511719 9.453125 5.113281 8.8125 5.367188 C 8.171875 5.625 7.488281 5.496094 6.972656 4.984375 L 5.433594 3.445312 C 5.304688 3.316406 5.089844 3.316406 4.960938 3.445312 L 2.996094 5.410156 C 2.867188 5.539062 2.867188 5.753906 2.996094 5.882812 L 4.535156 7.421875 C 5.003906 7.894531 5.175781 8.621094 4.917969 9.261719 C 4.664062 9.902344 4.0625 10.289062 3.335938 10.289062 L 1.199219 10.289062 C 1.027344 10.289062 0.855469 10.460938 0.855469 10.632812 L 0.855469 13.367188 C 0.855469 13.539062 1.027344 13.710938 1.199219 13.710938 L 3.378906 13.710938 C 4.0625 13.710938 4.664062 14.097656 4.917969 14.738281 C 5.175781 15.378906 5.046875 16.0625 4.535156 16.578125 L 2.996094 18.117188 C 2.867188 18.246094 2.867188 18.460938 2.996094 18.589844 L 4.960938 20.554688 C 5.003906 20.597656 5.089844 20.640625 5.21875 20.640625 C 5.304688 20.640625 5.390625 20.597656 5.476562 20.554688 L 7.015625 19.015625 C 7.273438 18.671875 7.699219 18.503906 8.128906 18.503906 Z M 8.128906 18.503906 "/>
<path style=" stroke:none;fill-rule:nonzero;fill:rgb(71.372549%,71.372549%,71.372549%);fill-opacity:1;" d="M 11.550781 15.851562 C 9.410156 15.851562 7.699219 14.140625 7.699219 12 C 7.699219 9.859375 9.410156 8.148438 11.550781 8.148438 C 13.691406 8.148438 15.402344 9.859375 15.402344 12 C 15.402344 14.140625 13.691406 15.851562 11.550781 15.851562 Z M 11.550781 9.003906 C 9.882812 9.003906 8.554688 10.332031 8.554688 12 C 8.554688 13.667969 9.882812 14.996094 11.550781 14.996094 C 13.21875 14.996094 14.546875 13.667969 14.546875 12 C 14.546875 10.332031 13.21875 9.003906 11.550781 9.003906 Z M 11.550781 9.003906 "/>
</g>
</svg>
